<?xml version="1.0" encoding="utf-8"?>
<!-- Generator: Adobe Illustrator 23.0.3, SVG Export Plug-In . SVG Version: 6.00 Build 0)  -->
<svg version="1.1" id="Layer_1" xmlns="http://www.w3.org/2000/svg" xmlns:xlink="http://www.w3.org/1999/xlink" x="0px" y="0px"
	 viewBox="0 0 219.75 200" style="enable-background:new 0 0 219.75 200;" xml:space="preserve">
<style type="text/css">
	.st0{fill:#FFFFFF;}
	.st1{fill:#005799;}
	.st2{fill:#00A94C;}
	.st3{fill:#E22B6C;}
	.st4{fill:#007AB6;}
	.st5{fill:#E51E25;}
	.st6{fill:#BD2025;}
	.st7{fill:#3A475E;}
	.st8{fill:#F06721;}
	.st9{fill:#006569;}
	.st10{fill:#ED714C;}
	.st11{fill:#E21E2E;}
	.st12{fill:#3E5A97;}
	.st13{fill:#13A94B;}
	.st14{fill:#E0306C;}
	.st15{fill:#0278B5;}
	.st16{fill:#BC2026;}
	.st17{fill:#00589A;}
	.st18{fill:#F16623;}
	.st19{fill:#36465C;}
	.st20{fill:#429BD5;}
	.st21{fill:#EE7355;}
	.st22{fill:#E31E2E;}
	.st23{fill:#00605F;}
	.st24{fill:#CC2127;}
	.st25{fill:none;}
</style>
<rect x="275.96" y="-113.75" class="st0" width="60" height="60"/>
<path class="st0" d="M87.63,68.97v59.55h24.41v-23h-7.75v-9.39h7.75v-7.89c0-5.74,4.65-10.39,10.38-10.39h8.1v8.44h-5.8
	c-1.82,0-3.3,1.48-3.3,3.3v6.53h8.95l-1.24,9.39h-7.72v23h25.75V68.97H87.63z"/>
<rect x="835.7" y="70.87" class="st1" width="60" height="60"/>
<rect x="411.18" y="70.95" class="st2" width="60" height="60"/>
<path id="icon_5_" class="st0" d="M448.8,82.34c2.92,0,5.32,2.37,5.32,5.32l0,0h-21.25v21.8c0,0.12-0.09,0.2-0.2,0.2h-4.92
	c-0.12,0-0.2-0.09-0.2-0.2v-21.8l0,0c0-2.92,2.37-5.32,5.32-5.32l0,0L448.8,82.34z M448.8,114.24h-21.25l0,0
	c0,2.92,2.37,5.32,5.32,5.32h15.93l0,0c2.92,0,5.32-2.37,5.32-5.32l0,0V92.41c0-0.12-0.09-0.2-0.2-0.2H449c-0.12,0-0.2,0.09-0.2,0.2
	V114.24L448.8,114.24z"/>
<rect x="553.65" y="70.95" class="st3" width="60" height="60"/>
<g>
	<path class="st0" d="M583.62,84.81c5.6,0,6.27,0.02,8.48,0.12c2.05,0.09,3.16,0.44,3.9,0.72c0.98,0.38,1.68,0.84,2.41,1.57
		c0.73,0.73,1.19,1.43,1.57,2.41c0.29,0.74,0.63,1.85,0.72,3.9c0.1,2.21,0.12,2.88,0.12,8.48c0,5.6-0.02,6.27-0.12,8.48
		c-0.09,2.05-0.44,3.16-0.72,3.9c-0.38,0.98-0.84,1.68-1.57,2.41c-0.73,0.73-1.43,1.19-2.41,1.57c-0.74,0.29-1.85,0.63-3.9,0.72
		c-2.21,0.1-2.88,0.12-8.48,0.12c-5.6,0-6.27-0.02-8.48-0.12c-2.05-0.09-3.16-0.44-3.9-0.72c-0.98-0.38-1.68-0.84-2.41-1.57
		c-0.73-0.73-1.19-1.43-1.57-2.41c-0.29-0.74-0.63-1.85-0.72-3.9c-0.1-2.21-0.12-2.88-0.12-8.48c0-5.6,0.02-6.27,0.12-8.48
		c0.09-2.05,0.44-3.16,0.72-3.9c0.38-0.98,0.84-1.68,1.57-2.41c0.73-0.73,1.43-1.19,2.41-1.57c0.74-0.29,1.85-0.63,3.9-0.72
		C577.36,84.83,578.02,84.81,583.62,84.81 M583.62,81.03c-5.7,0-6.41,0.02-8.65,0.13c-2.23,0.1-3.76,0.46-5.09,0.98
		c-1.38,0.54-2.55,1.25-3.72,2.42c-1.17,1.17-1.88,2.34-2.42,3.72c-0.52,1.33-0.87,2.86-0.98,5.09c-0.1,2.24-0.13,2.95-0.13,8.65
		c0,5.7,0.02,6.41,0.13,8.65c0.1,2.23,0.46,3.76,0.98,5.09c0.54,1.38,1.25,2.55,2.42,3.72c1.17,1.17,2.34,1.88,3.72,2.42
		c1.33,0.52,2.86,0.87,5.09,0.98c2.24,0.1,2.95,0.13,8.65,0.13s6.41-0.02,8.65-0.13c2.23-0.1,3.76-0.46,5.09-0.98
		c1.38-0.54,2.55-1.25,3.72-2.42c1.17-1.17,1.88-2.34,2.42-3.72c0.52-1.33,0.87-2.86,0.98-5.09c0.1-2.24,0.13-2.95,0.13-8.65
		c0-5.7-0.02-6.41-0.13-8.65c-0.1-2.23-0.46-3.76-0.98-5.09c-0.54-1.38-1.25-2.55-2.42-3.72c-1.17-1.17-2.34-1.88-3.72-2.42
		c-1.33-0.52-2.86-0.87-5.09-0.98C590.04,81.05,589.32,81.03,583.62,81.03L583.62,81.03z"/>
	<path class="st0" d="M583.62,91.23c-5.95,0-10.77,4.82-10.77,10.77s4.82,10.77,10.77,10.77s10.77-4.82,10.77-10.77
		S589.57,91.23,583.62,91.23z M583.62,109c-3.86,0-6.99-3.13-6.99-6.99s3.13-6.99,6.99-6.99c3.86,0,6.99,3.13,6.99,6.99
		S587.49,109,583.62,109z"/>
	<circle class="st0" cx="594.82" cy="90.81" r="2.52"/>
</g>
<rect x="271.18" y="70.95" class="st4" width="60" height="59.86"/>
<g>
	<path class="st0" d="M280.78,92.57h8.71v28.01h-8.71V92.57z M285.13,78.64c2.79,0,5.05,2.26,5.05,5.05c0,2.79-2.26,5.05-5.05,5.05
		c-2.8,0-5.05-2.26-5.05-5.05C280.08,80.9,282.34,78.64,285.13,78.64"/>
	<path class="st0" d="M294.95,92.57h8.35v3.83h0.12c1.16-2.2,4-4.52,8.24-4.52c8.81,0,10.44,5.8,10.44,13.34v15.36h-8.7v-13.62
		c0-3.25-0.06-7.43-4.53-7.43c-4.53,0-5.22,3.54-5.22,7.2v13.86h-8.7V92.57z"/>
</g>
<rect x="341.18" y="70.87" class="st5" width="60" height="60"/>
<path class="st0" d="M391.48,90.7c-0.48-1.81-1.9-3.24-3.7-3.72c-3.26-0.88-16.34-0.88-16.34-0.88s-13.08,0-16.34,0.88
	c-1.8,0.48-3.22,1.91-3.7,3.72c-0.87,3.28-0.87,10.13-0.87,10.13s0,6.85,0.87,10.13c0.48,1.81,1.9,3.24,3.7,3.72
	c3.26,0.88,16.34,0.88,16.34,0.88s13.08,0,16.34-0.88c1.8-0.48,3.22-1.91,3.7-3.72c0.87-3.28,0.87-10.13,0.87-10.13
	S392.36,93.99,391.48,90.7z M367.16,107.06V94.62l10.93,6.22L367.16,107.06z"/>
<g>
	<path class="st0" d="M492.28,101.53c-0.27-6.98,5.85-13.44,12.84-13.52c3.56-0.3,7.03,1.08,9.73,3.34
		c-1.11,1.22-2.23,2.42-3.43,3.54c-2.37-1.44-5.23-2.54-8.01-1.57c-4.48,1.27-7.19,6.56-5.53,10.94c1.37,4.57,6.93,7.08,11.29,5.16
		c2.26-0.81,3.74-2.89,4.4-5.13c-2.59-0.05-5.17-0.02-7.76-0.09c-0.01-1.54-0.01-3.07-0.01-4.61c4.31-0.01,8.63-0.02,12.95,0.02
		c0.27,3.77-0.29,7.81-2.74,10.83c-3.36,4.32-9.56,5.59-14.6,3.89C496.06,112.58,492.17,107.19,492.28,101.53z"/>
	<path class="st0" d="M527.17,95.71c1.28,0,2.56,0,3.85,0c0.01,1.29,0.02,2.58,0.03,3.87c1.29,0.01,2.58,0.02,3.87,0.03
		c0,1.29,0,2.57,0,3.85c-1.29,0.01-2.58,0.01-3.87,0.02c-0.01,1.29-0.02,2.58-0.03,3.87c-1.29-0.01-2.57,0-3.85,0
		c-0.01-1.29-0.01-2.58-0.03-3.87c-1.29-0.01-2.58-0.02-3.87-0.03c0-1.29,0-2.57,0-3.85c1.29-0.01,2.57-0.01,3.87-0.03
		C527.14,98.29,527.16,97,527.17,95.71z"/>
</g>
<rect x="623.9" y="70.95" class="st6" width="60" height="60"/>
<path class="st0" d="M650.64,109.82c-1.23,6.43-2.73,12.6-7.16,15.82c-1.37-9.72,2.01-17.02,3.58-24.77
	c-2.68-4.51,0.32-13.58,5.97-11.34c6.95,2.75-6.02,16.76,2.69,18.5c9.09,1.83,12.8-15.77,7.16-21.49
	c-8.14-8.26-23.7-0.19-21.79,11.64c0.47,2.89,3.45,3.77,1.19,7.76c-5.21-1.16-6.77-5.27-6.57-10.74
	c0.32-8.97,8.06-15.25,15.82-16.12c9.81-1.1,19.02,3.6,20.3,12.83c1.43,10.42-4.43,21.7-14.92,20.89
	C654.06,112.59,652.87,111.18,650.64,109.82z"/>
<rect x="765.37" y="70.95" class="st7" width="60" height="60"/>
<path class="st0" d="M805.26,118.15c-1.33,1.42-4.41,2.38-7.17,2.43h-0.3c-9.27,0-11.29-6.82-11.29-10.8V98.72h-3.65
	c-0.42,0-0.77-0.34-0.77-0.77l0,0v-5.22c0-0.55,0.35-1.04,0.87-1.23c4.76-1.68,6.25-5.83,6.48-8.99c0.06-0.84,0.5-1.25,1.23-1.25
	h5.45c0.42,0,0.77,0.34,0.77,0.77v8.84h6.37c0.42,0,0.77,0.34,0.77,0.76v6.28c0,0.42-0.34,0.77-0.77,0.77h-6.4v10.23
	c0,2.57,1.69,3.28,2.74,3.28c1-0.02,1.99-0.33,2.48-0.53c0.37-0.15,0.69-0.24,0.98-0.17c0.27,0.07,0.45,0.26,0.56,0.6l1.69,4.94
	C805.42,117.42,805.54,117.85,805.26,118.15z"/>
<rect x="694.63" y="70.95" class="st8" width="60" height="60"/>
<g id="lines__x003C_Group_x003E__1_">
	<path id="circle_1_" class="st0" d="M715.26,117.11c0,3.22-2.61,5.82-5.82,5.82c-3.21,0-5.82-2.61-5.82-5.82s2.61-5.82,5.82-5.82
		C712.65,111.28,715.26,113.89,715.26,117.11z"/>
	<g>
		<path class="st0" d="M703.62,102.43c5.46,0,10.58,2.13,14.44,6c3.86,3.88,5.98,9.04,5.98,14.53h8.4
			c0-15.96-12.93-28.94-28.83-28.94V102.43z"/>
	</g>
	<g>
		<path class="st0" d="M703.64,87.53c19.44,0,35.26,15.9,35.26,35.45h8.4c0-24.18-19.59-43.85-43.66-43.85V87.53z"/>
	</g>
</g>
<rect x="1046.46" y="70.87" class="st9" width="60" height="60"/>
<g>
	<path class="st0" d="M1089.53,78.04c-0.99,0-1.42,0.63-1.78,1.27c0,0-14.33,25.41-14.8,26.25c0.02,0.04,9.45,17.34,9.45,17.34
		c0.33,0.59,0.84,1.27,1.86,1.27h6.65c0.4,0,0.71-0.15,0.88-0.43c0.18-0.28,0.17-0.66-0.01-1.03l-9.38-17.13
		c-0.01-0.01-0.01-0.03,0-0.04l14.73-26.04c0.18-0.37,0.19-0.74,0.01-1.03c-0.17-0.27-0.48-0.42-0.88-0.42H1089.53z"/>
	<path class="st0" d="M1061.58,87.14c-0.4,0-0.71,0.15-0.88,0.43c-0.18,0.28-0.17,0.66,0.01,1.03l4.52,7.76
		c0.01,0.01,0.01,0.03,0,0.05l-7.09,12.48c-0.18,0.37-0.19,0.74-0.01,1.03c0.17,0.27,0.48,0.42,0.88,0.42h6.67
		c1,0,1.44-0.65,1.78-1.27c0,0,6.94-12.22,7.21-12.69c-0.03-0.04-4.59-7.97-4.59-7.97c-0.33-0.59-0.84-1.27-1.86-1.27H1061.58z"/>
</g>
<g>
	<rect x="906.04" y="70.95" class="st10" width="60" height="60"/>
</g>
<g>
	<path class="st0" d="M946.02,99.87c-0.03-0.07-0.07-0.13-0.1-0.2c-0.38,0.2-0.74,0.4-1.11,0.57c-0.36,0.17-0.74,0.32-1.12,0.45
		c-0.39,0.13-0.78,0.24-1.17,0.35c0,0.04,0,0.06,0.01,0.08c0.02,0.05,0.03,0.1,0.05,0.15c0.54,1.37,0.78,2.8,0.8,4.27
		c0.01,1.23-0.14,2.43-0.5,3.6c-0.54,1.76-1.41,3.35-2.7,4.68c-1.88,1.94-4.19,2.99-6.87,3.23c-0.25,0.02-0.5,0.02-0.77,0.03
		c0.01-0.06,0.01-0.07,0.02-0.08c0.14-0.11,0.28-0.21,0.42-0.31c2.8-2.13,5.01-4.75,6.57-7.91c1.3-2.62,1.96-5.41,2.02-8.33
		c0.03-1.43-0.09-2.85-0.34-4.25c-0.28-1.6-0.72-3.16-1.29-4.68c-0.02-0.05-0.07-0.16-0.11-0.23c-0.04-0.25-0.05-0.33-0.05-0.38
		c0-0.04,0-0.12,0-0.14c-0.14-1.32-0.38-2.62-0.74-3.9c-0.49-1.73-1.19-3.38-2.17-4.9c-0.67-1.05-1.45-2-2.41-2.82
		c-0.09-0.08-0.18-0.15-0.3-0.24c0,0.06-0.02,0.09,0,0.12c0.07,0.12,0.14,0.24,0.21,0.37c1.65,2.84,3.1,5.78,4.34,8.83
		c0.34,0.83,0.65,1.68,0.98,2.52l0.09,0.17c0.01,0.05,0.02,0.14,0.05,0.38c0.02,0.44,0.04,0.9,0.05,1.29
		c0.05,2.31-0.01,4.61-0.25,6.91c-0.11,1.06-0.24,2.12-0.42,3.17c-0.22,1.32-0.51,2.62-0.89,3.91c-0.46,1.58-1.05,3.11-1.83,4.56
		c-0.7,1.29-1.54,2.47-2.59,3.5c-0.97,0.94-2.08,1.68-3.33,2.2c-0.13,0.05-0.26,0.07-0.41,0.04c-1.71-0.33-3.24-1.04-4.61-2.11
		c-1.18-0.93-2.1-2.08-2.81-3.39c-0.76-1.4-1.22-2.9-1.38-4.49c-0.09-0.94-0.07-1.87,0.04-2.8c0.14-1.14,0.43-2.24,0.89-3.29
		c0.7-1.56,1.72-2.89,2.99-4.03c0.98-0.88,2.08-1.57,3.31-2.04c0.8-0.3,1.62-0.49,2.47-0.59c0.75-0.09,1.5-0.09,2.25-0.03
		c0.96,0.08,1.89,0.28,2.79,0.63c0.08,0.03,0.16,0.05,0.27,0.08c0.08-0.63,0.2-1.22,0.39-1.8c0.19-0.58,0.43-1.13,0.69-1.68
		c-0.14-0.11-0.3-0.14-0.44-0.18c-1.22-0.39-2.47-0.6-3.74-0.68c-1.37-0.08-2.72,0.01-4.06,0.28c-1.6,0.32-3.1,0.91-4.49,1.78
		c-1.32,0.83-2.46,1.86-3.47,3.04c-2.23,2.63-3.43,5.67-3.61,9.11c-0.05,0.99-0.02,1.98,0.11,2.96c0.17,1.39,0.53,2.73,1.08,4.02
		c0.9,2.08,2.21,3.86,3.87,5.39c1.23,1.13,2.63,1.99,4.19,2.59c1.45,0.56,2.97,0.85,4.52,0.92c1.44,0.07,2.87-0.01,4.28-0.31
		c1.91-0.4,3.66-1.17,5.23-2.33c1.23-0.91,2.26-2,3.17-3.22c1.8-2.42,2.78-5.15,2.95-8.16c0.07-1.23,0.01-2.46-0.19-3.67
		C946.67,101.85,946.41,100.84,946.02,99.87L946.02,99.87z M946.02,99.87"/>
	<path class="st0" d="M953.05,83.59c-0.32-1.17-0.76-2.29-1.37-3.34c-0.09-0.15-0.18-0.29-0.29-0.47c-0.08,0.15-0.15,0.27-0.22,0.39
		c-0.42,0.79-0.94,1.51-1.59,2.14c-0.98,0.95-2.11,1.63-3.44,1.96c-0.12,0.03-0.23,0.06-0.35,0.09c-0.98,0.29-1.93,0.66-2.82,1.17
		c-0.61,0.35-1.13,0.8-1.56,1.36c-0.8,1.04-1.19,2.21-1.13,3.53c0.05,1.07,0.35,2.07,0.87,3.01c0.03,0.05,0.06,0.08,0.11,0.15
		c4.22-1.03,7.39-3.45,9.58-7.26c-0.01,0.13,0,0.19-0.02,0.25c-0.07,0.33-0.19,0.65-0.34,0.95c-0.33,0.67-0.77,1.26-1.27,1.81
		c-0.86,0.96-1.83,1.8-2.85,2.58c-1.24,0.94-2.54,1.8-3.88,2.58c-0.1,0.06-0.22,0.09-0.29,0.22c0.18,0.16,0.36,0.33,0.54,0.48
		c0.69,0.58,1.44,1.05,2.3,1.33c0.81,0.27,1.63,0.34,2.48,0.19c1.02-0.18,1.91-0.63,2.7-1.3c0.76-0.65,1.35-1.44,1.86-2.3
		c0.29-0.5,0.56-1.01,0.75-1.55c0.39-1.14,0.62-2.31,0.69-3.51C953.59,86.54,953.44,85.05,953.05,83.59L953.05,83.59z M953.05,83.59
		"/>
</g>
<path class="st0" d="M870.21,79.16c-1.51-0.3-3.01-0.45-4.52-0.45c-1.54,0-3.05,0.15-4.56,0.45c0,15.26-0.11,27.55-15.34,36.9
	c1.88,2.79,4.33,5.16,7.16,6.93c5.96-3.69,9.42-8.07,12.74-14.1c3.32,6.03,6.75,10.4,12.74,14.1c2.83-1.77,5.27-4.15,7.12-6.93
	C870.32,106.71,870.21,94.42,870.21,79.16z"/>
<rect x="976.28" y="71.08" class="st11" width="60" height="60"/>
<g>
	<path class="st0" d="M1019.03,101.58c-0.76-0.48-1.62-0.87-2.56-1.17c-0.2-0.06-0.34-0.11-0.42-0.15c-0.08-0.03-0.18-0.09-0.3-0.19
		c-0.12-0.09-0.15-0.19-0.11-0.31c0.04-0.12,0.08-0.28,0.11-0.5c0.74-1.91,0.74-3.38,0-4.42c-0.76-1.01-2.03-1.52-3.8-1.52
		c-1.77,0-3.81,0.49-6.11,1.47l-0.15,0.05c-0.1,0.03-0.21,0.06-0.33,0.09c-0.12,0.03-0.25,0.03-0.36,0.01
		c-0.12-0.02-0.2-0.07-0.25-0.17c-0.05-0.1-0.04-0.27,0.02-0.5c0.75-2.4,0.58-4.13-0.5-5.19c-1.23-1.23-3.27-1.28-6.12-0.17
		c-2.86,1.11-5.68,3.06-8.48,5.86c-2.12,2.12-3.76,4.26-4.91,6.41c-1.15,2.15-1.73,4.18-1.73,6.09c0,1.79,0.54,3.44,1.61,4.96
		c1.08,1.52,2.5,2.77,4.26,3.75c1.76,0.99,3.76,1.76,5.97,2.31c2.22,0.55,4.5,0.83,6.83,0.83s4.58-0.26,6.72-0.77
		c2.15-0.51,4.02-1.2,5.62-2.06c1.6-0.86,2.99-1.83,4.19-2.92c1.19-1.08,2.1-2.22,2.71-3.4c0.61-1.18,0.92-2.34,0.92-3.47
		c0-1.06-0.28-2.02-0.85-2.89C1020.46,102.74,1019.79,102.06,1019.03,101.58z M1010.92,112.97c-2.43,1.96-5.49,3.13-9.18,3.52
		c-2.42,0.23-4.69,0.06-6.82-0.52c-2.13-0.58-3.86-1.48-5.18-2.71c-1.33-1.23-2.06-2.64-2.21-4.23c-0.23-2.42,0.87-4.61,3.29-6.57
		c2.43-1.96,5.49-3.13,9.18-3.52c2.42-0.23,4.69-0.06,6.82,0.52c2.13,0.58,3.86,1.48,5.18,2.71c1.32,1.23,2.06,2.63,2.21,4.22
		C1014.44,108.82,1013.35,111.01,1010.92,112.97z"/>
	<path class="st0" d="M1002.46,102.67c-1.76-0.45-3.5-0.29-5.23,0.47c-1.73,0.76-2.99,1.91-3.76,3.45
		c-0.78,1.57-0.83,3.13-0.16,4.66c0.67,1.53,1.89,2.58,3.66,3.14c1.84,0.6,3.69,0.5,5.56-0.3c1.87-0.8,3.18-2.04,3.93-3.73
		c0.74-1.66,0.73-3.23-0.06-4.73C1005.61,104.15,1004.3,103.16,1002.46,102.67z M999.8,110.72c-0.36,0.56-0.88,0.96-1.55,1.18
		c-0.67,0.22-1.29,0.2-1.85-0.06c-0.56-0.27-0.92-0.68-1.07-1.25c-0.15-0.57-0.04-1.14,0.32-1.7c0.35-0.55,0.84-0.93,1.49-1.14
		c0.65-0.21,1.25-0.21,1.81,0.02c0.58,0.25,0.95,0.66,1.12,1.24C1000.24,109.59,1000.15,110.16,999.8,110.72z M1002.14,107.72
		c-0.12,0.21-0.3,0.37-0.55,0.46c-0.25,0.09-0.49,0.09-0.72,0.01c-0.5-0.23-0.6-0.6-0.32-1.12c0.12-0.22,0.29-0.37,0.53-0.46
		c0.24-0.09,0.48-0.09,0.71-0.01c0.21,0.08,0.36,0.24,0.44,0.46C1002.3,107.28,1002.27,107.5,1002.14,107.72z M1018.53,96.82
		c0.18,0.36,0.46,0.6,0.85,0.73c0.38,0.12,0.75,0.08,1.1-0.1c0.36-0.18,0.6-0.46,0.73-0.84c0.32-0.93,0.37-1.9,0.16-2.92
		c-0.21-1.02-0.66-1.92-1.35-2.7c-0.7-0.78-1.53-1.32-2.51-1.63c-0.98-0.31-1.96-0.35-2.96-0.14c-0.4,0.08-0.7,0.29-0.92,0.63
		c-0.21,0.34-0.28,0.71-0.2,1.11c0.07,0.4,0.27,0.7,0.62,0.92c0.35,0.21,0.72,0.28,1.12,0.2c1.04-0.21,1.93,0.07,2.66,0.87
		c0.73,0.8,0.93,1.72,0.6,2.76C1018.32,96.1,1018.35,96.47,1018.53,96.82z"/>
	<path class="st0" d="M1027.32,92.48c-0.42-2.1-1.35-3.94-2.8-5.53c-1.44-1.61-3.16-2.72-5.17-3.34c-2-0.62-4.02-0.72-6.06-0.29
		c-0.46,0.1-0.82,0.34-1.08,0.73c-0.26,0.39-0.34,0.82-0.24,1.28c0.1,0.46,0.35,0.82,0.75,1.08c0.4,0.26,0.83,0.34,1.29,0.24
		c1.44-0.3,2.87-0.23,4.3,0.21c1.42,0.44,2.65,1.23,3.68,2.37c1.03,1.13,1.69,2.43,1.99,3.93c0.3,1.49,0.21,2.92-0.25,4.27
		c-0.13,0.45-0.09,0.88,0.12,1.29c0.21,0.41,0.55,0.7,0.99,0.85c0.45,0.15,0.88,0.12,1.29-0.1c0.41-0.22,0.7-0.55,0.85-0.99
		C1027.63,96.57,1027.74,94.57,1027.32,92.48z"/>
</g>
<g>
	<path class="st12" d="M15.63,343.07v72h38.35v-27.81H44.6V375.9h9.37v-9.53c0-6.93,5.62-12.56,12.56-12.56h9.8v10.21h-7.01
		c-2.2,0-3.99,1.79-3.99,3.99v7.89h10.83l-1.5,11.35h-9.33v27.81h22.3v-72H15.63z"/>
	<path class="st0" d="M74.65,387.26l1.5-11.35H65.32v-7.89c0-2.2,1.79-3.99,3.99-3.99h7.01v-10.21h-9.8
		c-6.94,0-12.56,5.62-12.56,12.56v9.53H44.6v11.35h9.37v27.81h11.35v-27.81H74.65z"/>
</g>
<g>
	<path class="st13" d="M97.63,343.07v72h72v-72H97.63z M118.1,363.44c0-3.45,2.8-6.25,6.25-6.25h18.73c3.45,0,6.25,2.8,6.25,6.25
		h-24.98v25.64c0,0.13-0.1,0.23-0.23,0.23h-5.8c-0.13,0-0.23-0.1-0.23-0.23V363.44z M149.34,394.66c0,3.45-2.8,6.25-6.25,6.25
		h-18.73c-3.45,0-6.25-2.8-6.25-6.25h24.98v-25.64c0-0.13,0.1-0.23,0.23-0.23h5.8c0.13,0,0.23,0.1,0.23,0.23V394.66z"/>
	<path class="st0" d="M143.08,357.19c3.45,0,6.25,2.8,6.25,6.25h-24.98v25.64c0,0.13-0.1,0.23-0.23,0.23h-5.8
		c-0.13,0-0.23-0.1-0.23-0.23v-25.64c0-3.45,2.8-6.25,6.25-6.25H143.08z M143.08,394.66h-24.97c0,3.45,2.8,6.25,6.25,6.25h18.73
		c3.45,0,6.25-2.8,6.25-6.25v-25.64c0-0.13-0.1-0.23-0.23-0.23h-5.8c-0.13,0-0.23,0.1-0.23,0.23v25.64H143.08z"/>
</g>
<g>
	<path class="st14" d="M297.78,372.53c-4.46-0.05-8.11,3.57-8.22,7.94c-0.11,4.55,3.43,8.44,8.19,8.44c4.67,0,8.08-3.68,8.2-7.9
		C306.1,376.1,302.16,372.49,297.78,372.53z"/>
	<path class="st14" d="M317.85,371.43c-0.06-1.31-0.14-2.62-0.46-3.9c-0.64-2.61-2.09-4.59-4.54-5.77c-1.5-0.73-3.11-1-4.75-1.08
		c-2.33-0.12-4.66-0.17-6.99-0.16c-3.55,0.01-7.09-0.04-10.64,0.07c-1.8,0.05-3.61,0.02-5.38,0.39c-3.54,0.73-5.91,2.76-6.89,6.3
		c-0.53,1.89-0.52,3.84-0.58,5.77c-0.11,3.57-0.08,7.14-0.04,10.71c0.03,2.99-0.07,5.99,0.33,8.97c0.21,1.58,0.69,3.07,1.64,4.37
		c1.58,2.17,3.83,3.16,6.42,3.51c1.7,0.23,3.42,0.27,5.14,0.28c4.74,0.04,9.47,0.06,14.21-0.01c1.58-0.03,3.15-0.08,4.71-0.35
		c1.52-0.25,2.95-0.74,4.2-1.67c2.26-1.67,3.16-4.04,3.47-6.72c0.13-1.11,0.13-2.22,0.17-3.34c0.12-2.74,0.04-5.49,0.08-7.5
		C317.9,377.52,317.98,374.47,317.85,371.43z M298.08,393.38c-6.88,0.19-13.19-5.35-12.98-13.14c0.17-6.59,5.62-12.19,12.66-12.21
		c7.01-0.02,12.67,5.67,12.68,12.74C310.38,387.75,304.76,393.2,298.08,393.38z M310.98,370.51c-1.73,0-3.03-1.29-3.04-3.02
		c0-1.57,1.37-2.91,2.97-2.92c1.66,0,2.97,1.33,2.97,3.02C313.88,369.18,312.56,370.51,310.98,370.51z"/>
	<path class="st14" d="M261.7,343.56v72h72v-72L261.7,343.56z M322.34,389.16c-0.07,2.01-0.14,4.02-0.66,5.99
		c-0.98,3.7-3.07,6.53-6.46,8.34c-1.6,0.86-3.33,1.31-5.13,1.55c-2.18,0.29-4.37,0.29-6.56,0.32c-2.86,0.03-5.71,0.05-8.57,0.02
		c-2.47-0.02-4.94-0.01-7.4-0.14c-2.58-0.13-5.1-0.56-7.39-1.82c-3.41-1.87-5.48-4.77-6.4-8.52c-0.4-1.61-0.53-3.26-0.58-4.91
		c-0.17-5.31-0.1-10.63-0.07-15.94c0.01-1.59,0.06-3.18,0.21-4.77c0.26-2.83,1.02-5.49,2.77-7.79c1.97-2.59,4.59-4.14,7.76-4.83
		c1.83-0.4,3.69-0.48,5.55-0.53c5.01-0.14,10.02-0.05,15.04-0.06c1.86,0,3.73,0.06,5.58,0.3c3.94,0.51,7.27,2.12,9.63,5.44
		c1.26,1.76,1.97,3.74,2.32,5.86c0.45,2.75,0.38,5.54,0.44,8.32c0.03,1.52,0.01,3.03,0.01,4.55
		C322.45,383.42,322.44,386.29,322.34,389.16z"/>
</g>
<g>
	<path class="st0" d="M322.03,380.55c0.03,2.87,0.02,5.74-0.07,8.61c-0.06,2.01-0.14,4.02-0.66,5.99c-0.98,3.7-3.07,6.53-6.46,8.34
		c-1.6,0.86-3.33,1.31-5.13,1.55c-2.18,0.29-4.37,0.29-6.56,0.32c-2.86,0.03-5.71,0.05-8.57,0.02c-2.47-0.02-4.94-0.01-7.4-0.14
		c-2.58-0.13-5.1-0.56-7.39-1.82c-3.41-1.87-5.48-4.77-6.4-8.52c-0.4-1.61-0.53-3.26-0.58-4.91c-0.17-5.31-0.1-10.63-0.07-15.94
		c0.01-1.59,0.06-3.18,0.21-4.77c0.26-2.83,1.02-5.49,2.77-7.79c1.97-2.59,4.59-4.14,7.76-4.83c1.83-0.4,3.69-0.48,5.55-0.53
		c5.01-0.14,10.02-0.05,15.04-0.06c1.87,0,3.73,0.06,5.58,0.3c3.94,0.51,7.27,2.12,9.63,5.44c1.26,1.76,1.97,3.74,2.32,5.86
		c0.45,2.75,0.38,5.54,0.44,8.32C322.05,377.52,322.03,379.03,322.03,380.55z M317.56,381.3c-0.04-3.78,0.04-6.82-0.1-9.87
		c-0.06-1.31-0.14-2.62-0.46-3.9c-0.64-2.61-2.09-4.59-4.54-5.77c-1.5-0.73-3.11-1-4.75-1.08c-2.33-0.12-4.66-0.17-6.99-0.16
		c-3.55,0.01-7.09-0.04-10.64,0.07c-1.8,0.05-3.61,0.02-5.38,0.39c-3.54,0.73-5.91,2.76-6.89,6.3c-0.53,1.89-0.52,3.84-0.58,5.77
		c-0.11,3.57-0.08,7.14-0.04,10.71c0.03,2.99-0.07,5.99,0.33,8.97c0.21,1.58,0.69,3.07,1.64,4.37c1.58,2.17,3.83,3.16,6.42,3.51
		c1.7,0.23,3.42,0.27,5.13,0.28c4.74,0.04,9.47,0.06,14.21-0.01c1.58-0.03,3.15-0.08,4.71-0.35c1.52-0.25,2.95-0.74,4.2-1.67
		c2.26-1.67,3.16-4.04,3.47-6.72c0.13-1.11,0.13-2.22,0.17-3.34C317.6,386.05,317.52,383.31,317.56,381.3z"/>
	<path class="st0" d="M310.05,380.77c-0.05,6.98-5.67,12.43-12.36,12.61c-6.89,0.19-13.19-5.35-12.98-13.14
		c0.17-6.59,5.62-12.19,12.66-12.21C304.38,368.01,310.03,373.71,310.05,380.77z M297.4,372.53c-4.46-0.05-8.11,3.57-8.22,7.94
		c-0.11,4.55,3.43,8.44,8.19,8.44c4.67,0,8.08-3.68,8.2-7.9C305.71,376.1,301.77,372.49,297.4,372.53z M313.5,367.59
		c0,1.59-1.32,2.92-2.9,2.92c-1.73,0-3.03-1.29-3.04-3.02c-0.01-1.57,1.36-2.91,2.97-2.92C312.18,364.57,313.5,365.9,313.5,367.59z"
		/>
</g>
<g>
	<g>
		<path class="st15" d="M383.26,375.92v-0.11c-0.02,0.04-0.05,0.07-0.07,0.11H383.26z"/>
		<path class="st15" d="M344.27,343.58v72h72v-72H344.27z M366.67,403.4h-10.68v-32.14h10.68L366.67,403.4L366.67,403.4z
			 M361.33,366.88h-0.07c-3.58,0-5.91-2.47-5.91-5.55c0-3.15,2.39-5.55,6.05-5.55c3.66,0,5.9,2.4,5.97,5.55
			C367.37,364.41,365.05,366.88,361.33,366.88z M405.2,403.4h-10.69v-17.19c0-4.32-1.55-7.27-5.41-7.27c-2.95,0-4.71,1.99-5.48,3.91
			c-0.28,0.69-0.35,1.64-0.35,2.6v17.95h-10.69c0,0,0.14-29.12,0-32.14h10.69v4.55c1.42-2.18,3.95-5.31,9.63-5.31
			c7.03,0,12.3,4.59,12.3,14.46C405.2,384.97,405.2,403.4,405.2,403.4z"/>
	</g>
	<path class="st0" d="M355.99,371.26h10.68v32.14h-10.68V371.26z M383.26,403.4v-17.95c0-0.96,0.07-1.92,0.35-2.6
		c0.77-1.92,2.53-3.91,5.48-3.91c3.87,0,5.41,2.95,5.41,7.27v17.19h10.69v-18.43c0-9.87-5.27-14.46-12.3-14.46
		c-5.68,0-8.21,3.12-9.63,5.31v0.1h-0.07c0.02-0.04,0.05-0.07,0.07-0.1v-4.55h-10.68c0.14,3.02,0,32.14,0,32.14L383.26,403.4
		L383.26,403.4z M361.26,366.88h0.07c3.73,0,6.04-2.47,6.04-5.55c-0.07-3.15-2.32-5.55-5.97-5.55c-3.66,0-6.05,2.4-6.05,5.55
		C355.35,364.41,357.67,366.88,361.26,366.88z"/>
</g>
<g>
	<path class="st16" d="M426.11,343.65v71.87h72v-71.87H426.11z M478.05,391.03c-3.08,3.98-7.46,6.17-12.33,6.17
		c-2.58,0-5.24-1.07-6.89-2.66c-0.54,2.13-1.42,5.6-1.67,6.52c-0.31,1.13-3.36,11.1-6.78,10.19c-3.04-0.82-1.2-11.06-0.9-12.36
		c0.53-2.22,3.31-14,3.77-15.99c-0.28-0.68-0.91-2.44-0.91-4.8c0-4.81,2.91-8.58,6.62-8.58c2.92,0,4.89,2.15,4.89,5.34
		c0,1.87-0.72,4.21-1.49,6.68c-0.42,1.36-0.85,2.76-1.17,4.1c-0.28,1.19-0.05,2.33,0.65,3.22c0.74,0.94,1.91,1.47,3.22,1.47
		c3.02,0,4.99-2.32,6.11-4.27c1.61-2.81,2.5-6.62,2.5-10.73c0-6.52-4.43-10.57-11.56-10.57c-8.98,0-13.83,6.92-13.83,13.43
		c0,2.19,0.56,3.88,1.76,5.3c0.66,0.78,0.9,1.32,0.6,2.43c-0.14,0.57-0.47,1.87-0.61,2.4c-0.24,0.92-0.94,1.5-1.82,1.5
		c-0.27,0-0.56-0.06-0.83-0.17c-4.16-1.7-6.65-6.26-6.65-12.2c0-4.73,2.04-9.51,5.6-13.11c2.89-2.92,8.11-6.4,16.6-6.4
		c5.56,0,10.64,1.94,14.32,5.47c3.46,3.32,5.44,7.87,5.44,12.49C482.69,381.79,481.04,387.17,478.05,391.03z"/>
	<path class="st0" d="M477.25,363.39c-3.67-3.53-8.76-5.47-14.32-5.47c-8.49,0-13.71,3.48-16.6,6.4c-3.56,3.6-5.6,8.38-5.6,13.11
		c0,5.94,2.49,10.5,6.65,12.2c0.28,0.11,0.56,0.17,0.83,0.17c0.88,0,1.57-0.57,1.82-1.5c0.14-0.53,0.47-1.83,0.61-2.4
		c0.3-1.12,0.06-1.65-0.6-2.43c-1.2-1.42-1.76-3.11-1.76-5.3c0-6.51,4.85-13.43,13.83-13.43c7.13,0,11.56,4.05,11.56,10.57
		c0,4.12-0.89,7.93-2.5,10.73c-1.12,1.95-3.09,4.27-6.11,4.27c-1.31,0-2.48-0.54-3.22-1.47c-0.7-0.88-0.93-2.03-0.65-3.22
		c0.32-1.34,0.75-2.75,1.17-4.1c0.76-2.48,1.49-4.82,1.49-6.68c0-3.19-1.96-5.34-4.89-5.34c-3.71,0-6.62,3.77-6.62,8.58
		c0,2.36,0.63,4.13,0.91,4.81c-0.47,1.98-3.25,13.76-3.77,15.98c-0.3,1.3-2.14,11.54,0.9,12.36c3.42,0.92,6.47-9.06,6.78-10.19
		c0.25-0.92,1.13-4.38,1.67-6.52c1.65,1.59,4.3,2.66,6.89,2.66c4.87,0,9.25-2.19,12.33-6.17c2.99-3.86,4.64-9.24,4.64-15.14
		C482.69,371.27,480.71,366.71,477.25,363.39L477.25,363.39z"/>
</g>
<g>
	<path class="st17" d="M508.37,343.58v72h72v-72H508.37z M558.07,403.72c-6.67-4.11-10.48-8.97-14.18-15.68
		c-3.69,6.71-7.55,11.58-14.17,15.68c-3.15-1.97-5.87-4.61-7.97-7.72c16.94-10.4,17.07-24.07,17.07-41.06
		c1.68-0.33,3.35-0.5,5.07-0.5c1.68,0,3.36,0.17,5.03,0.5c0,16.99,0.13,30.66,17.07,41.06
		C563.93,399.11,561.21,401.75,558.07,403.72z"/>
	<path class="st0" d="M548.92,354.95c-1.68-0.33-3.35-0.5-5.03-0.5c-1.72,0-3.4,0.17-5.07,0.5c0,16.99-0.12,30.66-17.07,41.06
		c2.1,3.1,4.82,5.75,7.97,7.72c6.63-4.11,10.48-8.98,14.17-15.68c3.69,6.71,7.51,11.58,14.18,15.68c3.14-1.97,5.87-4.61,7.92-7.72
		C549.05,385.61,548.92,371.93,548.92,354.95z"/>
</g>
<g>
	<path class="st18" d="M590.37,343.58v72h72v-72H590.37z M608.37,403.58c-3.31,0-6-2.69-6-6c0-3.31,2.69-6,6-6s6,2.69,6,6
		C614.37,400.9,611.68,403.58,608.37,403.58z M624.61,403.58c-0.01-12.28-9.96-22.23-22.24-22.24v-9
		c17.25,0.02,31.23,13.99,31.24,31.24H624.61z M641.37,403.58c-0.02-21.53-17.47-38.98-39-39v-9c26.5,0.03,47.97,21.5,48,48H641.37z
		"/>
	<g>
		<path class="st0" d="M602.37,381.34c12.28,0.01,22.23,9.96,22.24,22.24h9c-0.02-17.25-13.99-31.23-31.24-31.24V381.34z"/>
		<circle class="st0" cx="608.37" cy="397.58" r="6"/>
		<path class="st0" d="M641.37,403.58h9c-0.03-26.5-21.5-47.97-48-48v9C623.9,364.61,641.35,382.06,641.37,403.58z"/>
	</g>
</g>
<g>
	<path class="st19" d="M672.33,343.58v72h72v-72H672.33z M721.84,399.81c-1.56,1.67-5.18,2.8-8.42,2.85h-0.35
		c-10.89,0-13.25-8.01-13.25-12.68V377h-4.29c-0.5,0-0.9-0.4-0.9-0.9v-6.13c0-0.65,0.41-1.22,1.02-1.44
		c5.59-1.97,7.34-6.85,7.6-10.55c0.07-0.99,0.59-1.47,1.45-1.47h6.39c0.5,0,0.9,0.4,0.9,0.9v10.38h7.48c0.5,0,0.9,0.4,0.9,0.9v7.37
		c0,0.5-0.4,0.9-0.9,0.9h-7.52v12c0,3.01,1.98,3.85,3.21,3.85c1.18-0.03,2.33-0.39,2.92-0.62c0.43-0.17,0.81-0.29,1.15-0.2
		c0.32,0.08,0.52,0.3,0.66,0.71l1.98,5.79C722.03,398.95,722.17,399.45,721.84,399.81z"/>
	<path class="st0" d="M721.84,399.81c-1.56,1.67-5.18,2.8-8.42,2.85h-0.35c-10.89,0-13.25-8.01-13.25-12.68V377h-4.29
		c-0.5,0-0.9-0.4-0.9-0.9v-6.13c0-0.65,0.41-1.22,1.02-1.44c5.59-1.97,7.34-6.85,7.6-10.55c0.07-0.99,0.59-1.47,1.45-1.47h6.39
		c0.5,0,0.9,0.4,0.9,0.9v10.38h7.48c0.5,0,0.9,0.4,0.9,0.9v7.37c0,0.5-0.4,0.9-0.9,0.9h-7.52v12c0,3.01,1.98,3.85,3.21,3.85
		c1.18-0.03,2.33-0.39,2.92-0.62c0.43-0.17,0.81-0.29,1.15-0.2c0.32,0.08,0.52,0.3,0.66,0.71l1.98,5.79
		C722.03,398.95,722.17,399.45,721.84,399.81z"/>
</g>
<g>
	<path class="st20" d="M754.33,343.58v72h72v-72H754.33z M810.15,369.42c0.02,0.44,0.03,0.88,0.03,1.32
		c0,13.51-10.29,29.1-29.1,29.1c-5.77,0-11.15-1.69-15.68-4.59c0.8,0.09,1.61,0.14,2.44,0.14c4.79,0,9.2-1.64,12.7-4.38
		c-4.47-0.08-8.25-3.04-9.55-7.1c0.62,0.12,1.27,0.18,1.92,0.18c0.93,0,1.84-0.13,2.69-0.36c-4.68-0.94-8.2-5.07-8.2-10.03
		c0-0.04,0-0.09,0-0.13c1.38,0.77,2.96,1.23,4.63,1.28c-2.74-1.83-4.55-4.96-4.55-8.51c0-1.88,0.5-3.63,1.39-5.14
		c5.04,6.19,12.58,10.26,21.08,10.69c-0.17-0.75-0.27-1.53-0.27-2.33c0-5.65,4.58-10.23,10.23-10.23c2.94,0,5.6,1.24,7.46,3.23
		c2.33-0.46,4.52-1.31,6.49-2.48c-0.76,2.39-2.39,4.39-4.5,5.66c2.07-0.25,4.04-0.8,5.87-1.61
		C813.88,366.18,812.15,367.98,810.15,369.42z"/>
	<path class="st0" d="M813.87,360.08c-1.98,1.17-4.16,2.02-6.49,2.48c-1.87-1.99-4.52-3.23-7.46-3.23
		c-5.65,0-10.23,4.58-10.23,10.23c0,0.8,0.09,1.58,0.27,2.33c-8.5-0.43-16.04-4.5-21.08-10.69c-0.88,1.51-1.38,3.27-1.38,5.14
		c0,3.55,1.8,6.68,4.55,8.51c-1.68-0.05-3.25-0.51-4.63-1.28c0,0.04,0,0.09,0,0.13c0,4.95,3.52,9.09,8.2,10.03
		c-0.86,0.23-1.76,0.36-2.69,0.36c-0.66,0-1.3-0.06-1.92-0.18c1.3,4.06,5.08,7.02,9.55,7.1c-3.5,2.74-7.91,4.38-12.7,4.38
		c-0.83,0-1.64-0.05-2.44-0.14c4.53,2.9,9.9,4.59,15.68,4.59c18.81,0,29.1-15.58,29.1-29.1c0-0.44-0.01-0.88-0.03-1.32
		c2-1.44,3.73-3.24,5.1-5.29c-1.83,0.81-3.81,1.36-5.87,1.61C811.49,364.47,813.11,362.47,813.87,360.08L813.87,360.08z"/>
</g>
<path class="st21" d="M836.22,343.44v72h72v-72H836.22z M870.78,350.73c0.11-0.1,0.25,0.12,0.36,0.22c1.86,1.58,3.27,3.52,4.4,5.67
	c1.47,2.76,2.37,5.71,2.85,8.79c0.09,0.56,0.17,1.12,0.25,1.67c0.02,0.12,0,0.24,0,0.36c-0.02,0-0.05,0.01-0.08,0.01
	c-0.27-0.71-0.55-1.42-0.82-2.13c-1.87-4.92-4.18-9.62-6.81-14.17C870.85,351.02,870.65,350.85,870.78,350.73z M888.87,388.9
	c-0.11,3.78-1.13,7.29-3.14,10.5c-2.2,3.5-5.07,6.28-8.86,8.02c-1.52,0.69-3.11,1.14-4.76,1.42c-1.44,0.24-2.89,0.34-4.34,0.32
	c-3.62-0.06-7.04-0.89-10.16-2.78c-1.91-1.15-3.54-2.64-4.98-4.34c-2.05-2.42-3.53-5.15-4.35-8.22c-0.67-2.49-0.84-5.02-0.65-7.58
	c0.27-3.73,1.43-7.15,3.55-10.23c2.35-3.43,5.34-6.11,9.22-7.71c1.66-0.68,3.38-1.09,5.16-1.3c1.25-0.15,2.5-0.18,3.76-0.12
	c1.97,0.09,3.89,0.43,5.77,1.05c0.25,0.08,0.33,0.16,0.2,0.44c-0.62,1.3-1.11,2.65-1.32,4.09c-0.08,0.55-0.11,0.56-0.67,0.35
	c-1.92-0.73-3.92-0.97-5.95-0.85c-3.26,0.19-6.17,1.34-8.67,3.47c-2.82,2.41-4.74,5.36-5.53,9.02c-0.38,1.76-0.47,3.54-0.32,5.33
	c0.33,3.75,1.78,7.03,4.34,9.78c2.07,2.23,4.65,3.63,7.62,4.29c0.43,0.1,0.81,0.08,1.22-0.1c2.91-1.3,5.14-3.38,6.89-6
	c1.85-2.77,3.04-5.82,3.9-9.01c0.54-2,0.96-4.02,1.25-6.07c0.22-1.48,0.37-2.97,0.49-4.46c0.22-2.68,0.27-5.37,0.25-8.06
	c-0.01-0.66-0.1-1.33-0.02-2c0.37,0.8,0.64,1.63,0.89,2.46c0.65,2.13,1.12,4.3,1.35,6.52c0.11,1.06,0.19,2.12,0.19,3.19
	c-0.02,5.02-1.29,9.7-3.81,14.04c-2.16,3.71-4.96,6.84-8.39,9.41c-0.15,0.11-0.29,0.23-0.49,0.38c0.6,0.08,1.15,0.02,1.69-0.05
	c1.83-0.24,3.6-0.74,5.23-1.62c3.32-1.78,5.62-4.46,7.04-7.92c1.01-2.45,1.36-4.99,1.19-7.62c-0.11-1.64-0.43-3.24-1.04-4.78
	c-0.17-0.44-0.17-0.44,0.28-0.56c1.39-0.39,2.73-0.91,3.99-1.62c0.42-0.24,0.42-0.23,0.59,0.21
	C888.57,382.98,888.96,385.9,888.87,388.9z M896.73,368.92c-0.96,2.3-2.35,4.33-4.51,5.68c-2.48,1.55-5.04,1.52-7.61,0.17
	c-0.85-0.45-1.6-1.04-2.31-1.68c-0.31-0.28-0.31-0.33,0.05-0.54c1.5-0.87,2.96-1.79,4.37-2.8c1.85-1.33,3.65-2.73,5.16-4.46
	c0.92-1.05,1.75-2.16,2.15-3.52c0.05-0.17,0.13-0.33,0.1-0.54c-0.14,0.09-0.18,0.23-0.25,0.34c-1.69,2.81-3.87,5.17-6.64,6.95
	c-1.96,1.25-4.08,2.12-6.33,2.7c-0.25,0.06-0.29-0.1-0.37-0.23c-0.52-0.94-0.88-1.93-1.07-2.99c-0.41-2.27,0.07-4.34,1.48-6.17
	c0.88-1.15,2.07-1.9,3.35-2.51c1.2-0.57,2.48-0.91,3.76-1.3c2.92-0.89,5.01-2.82,6.49-5.44c0.12-0.22,0.25-0.44,0.4-0.72
	c0.67,1.01,1.17,2.04,1.6,3.11c0.67,1.68,1.14,3.43,1.31,5.23C898.15,363.19,897.89,366.14,896.73,368.92z"/>
<g>
	<path class="st0" d="M878.77,368.13c0.37,0.8,0.64,1.63,0.89,2.46c0.65,2.13,1.12,4.3,1.35,6.52c0.11,1.06,0.19,2.12,0.19,3.19
		c-0.02,5.02-1.29,9.7-3.81,14.04c-2.16,3.71-4.96,6.84-8.39,9.41c-0.15,0.11-0.29,0.23-0.49,0.38c0.6,0.08,1.15,0.02,1.69-0.05
		c1.83-0.24,3.6-0.74,5.23-1.62c3.32-1.78,5.62-4.46,7.04-7.92c1.01-2.45,1.36-4.99,1.19-7.62c-0.11-1.64-0.43-3.25-1.04-4.78
		c-0.17-0.44-0.17-0.44,0.28-0.56c1.39-0.39,2.73-0.91,3.99-1.62c0.42-0.23,0.42-0.23,0.59,0.21c1.1,2.81,1.49,5.73,1.4,8.73
		c-0.11,3.78-1.13,7.29-3.15,10.5c-2.2,3.5-5.07,6.28-8.86,8.01c-1.52,0.69-3.11,1.15-4.76,1.42c-1.44,0.24-2.89,0.34-4.34,0.32
		c-3.62-0.06-7.04-0.89-10.16-2.78c-1.91-1.15-3.54-2.64-4.98-4.34c-2.04-2.43-3.52-5.15-4.35-8.22c-0.67-2.49-0.84-5.02-0.65-7.58
		c0.27-3.73,1.43-7.15,3.55-10.23c2.35-3.43,5.34-6.11,9.22-7.71c1.65-0.68,3.38-1.09,5.16-1.3c1.25-0.15,2.5-0.18,3.76-0.12
		c1.97,0.09,3.89,0.43,5.77,1.05c0.25,0.08,0.33,0.16,0.2,0.44c-0.62,1.3-1.11,2.65-1.32,4.09c-0.08,0.55-0.11,0.56-0.67,0.35
		c-1.92-0.73-3.92-0.97-5.95-0.85c-3.26,0.19-6.17,1.34-8.67,3.47c-2.82,2.41-4.74,5.37-5.53,9.02c-0.38,1.76-0.47,3.54-0.32,5.33
		c0.33,3.76,1.78,7.03,4.34,9.78c2.07,2.23,4.65,3.63,7.62,4.3c0.43,0.1,0.81,0.08,1.22-0.1c2.91-1.3,5.14-3.38,6.89-6
		c1.85-2.77,3.04-5.81,3.9-9.01c0.54-2,0.96-4.02,1.25-6.07c0.22-1.48,0.37-2.97,0.49-4.46c0.23-2.68,0.27-5.37,0.25-8.06
		C878.78,369.47,878.69,368.8,878.77,368.13z"/>
	<path class="st0" d="M894.95,351.86c0.67,1.01,1.17,2.04,1.6,3.11c0.67,1.68,1.14,3.43,1.31,5.23c0.29,2.99,0.03,5.93-1.13,8.71
		c-0.96,2.3-2.35,4.33-4.51,5.68c-2.48,1.55-5.04,1.52-7.61,0.17c-0.85-0.45-1.6-1.04-2.31-1.68c-0.31-0.28-0.31-0.33,0.05-0.54
		c1.5-0.87,2.96-1.79,4.37-2.8c1.85-1.33,3.65-2.73,5.16-4.46c0.92-1.05,1.75-2.16,2.15-3.52c0.05-0.17,0.13-0.33,0.1-0.54
		c-0.14,0.09-0.18,0.23-0.25,0.34c-1.69,2.81-3.87,5.17-6.64,6.95c-1.96,1.25-4.08,2.12-6.33,2.7c-0.25,0.06-0.29-0.1-0.37-0.23
		c-0.52-0.94-0.88-1.93-1.07-2.99c-0.41-2.27,0.07-4.34,1.48-6.17c0.88-1.15,2.07-1.9,3.35-2.51c1.2-0.57,2.48-0.91,3.76-1.3
		c2.92-0.89,5.01-2.82,6.49-5.44C894.67,352.36,894.8,352.14,894.95,351.86z M878.57,367.45c-0.27-0.71-0.55-1.42-0.82-2.13
		c-1.87-4.92-4.18-9.62-6.81-14.17c-0.08-0.13-0.28-0.31-0.15-0.42c0.11-0.1,0.25,0.12,0.36,0.22c1.86,1.58,3.27,3.52,4.4,5.67
		c1.47,2.76,2.37,5.71,2.85,8.79c0.09,0.56,0.17,1.12,0.25,1.67c0.02,0.12,0,0.24,0,0.36C878.62,367.44,878.59,367.45,878.57,367.45
		z"/>
</g>
<g>
	<g>
		<path class="st22" d="M960.83,380.46c-1.46-1.35-3.35-2.34-5.69-2.97c-2.34-0.64-4.83-0.83-7.49-0.57
			c-4.05,0.42-7.41,1.7-10.08,3.86c-2.66,2.15-3.87,4.56-3.61,7.21c0.16,1.75,0.97,3.29,2.43,4.64c1.45,1.35,3.35,2.34,5.69,2.97
			c2.34,0.64,4.83,0.83,7.49,0.57c4.05-0.42,7.41-1.71,10.08-3.86s3.87-4.56,3.61-7.21C963.09,383.35,962.28,381.8,960.83,380.46z
			 M954.75,389.46c-0.82,1.85-2.25,3.22-4.31,4.09c-2.05,0.87-4.09,0.98-6.11,0.33c-1.95-0.62-3.29-1.77-4.02-3.45
			s-0.68-3.39,0.18-5.11c0.85-1.69,2.23-2.95,4.13-3.79c1.9-0.84,3.81-1.01,5.74-0.52c2.02,0.53,3.46,1.61,4.32,3.26
			S955.56,387.64,954.75,389.46z"/>
		<path class="st22" d="M949.62,385.31c-0.26-0.09-0.51-0.09-0.78,0.01c-0.26,0.1-0.46,0.27-0.59,0.51
			c-0.31,0.56-0.19,0.97,0.35,1.23c0.25,0.09,0.52,0.09,0.79-0.01c0.27-0.1,0.47-0.27,0.6-0.5c0.15-0.24,0.18-0.48,0.1-0.72
			C950.01,385.57,949.85,385.41,949.62,385.31z M946.51,386.6c-0.62-0.25-1.28-0.26-1.99-0.03s-1.26,0.65-1.64,1.25
			c-0.4,0.62-0.52,1.24-0.35,1.87c0.16,0.63,0.55,1.09,1.17,1.38c0.62,0.29,1.3,0.31,2.03,0.07c0.74-0.24,1.3-0.68,1.71-1.3
			c0.38-0.62,0.48-1.24,0.3-1.88C947.56,387.32,947.15,386.87,946.51,386.6z"/>
		<path class="st22" d="M917.22,343.44v72h72v-72H917.22z M970.65,389.01c-0.67,1.3-1.66,2.55-2.97,3.74
			c-1.31,1.19-2.84,2.26-4.6,3.2c-1.75,0.95-3.81,1.7-6.16,2.26c-2.35,0.56-4.81,0.85-7.38,0.85c-2.56,0-5.06-0.3-7.5-0.91
			c-2.44-0.61-4.62-1.46-6.56-2.54c-1.94-1.08-3.5-2.45-4.68-4.12c-1.18-1.66-1.77-3.48-1.77-5.44c0-2.09,0.63-4.32,1.9-6.68
			c1.26-2.37,3.06-4.71,5.39-7.04c3.07-3.07,6.18-5.22,9.31-6.44c3.14-1.22,5.38-1.15,6.72,0.19c1.18,1.16,1.36,3.06,0.55,5.7
			c-0.07,0.25-0.08,0.44-0.03,0.55c0.05,0.11,0.15,0.17,0.27,0.19c0.13,0.02,0.26,0.02,0.4-0.01c0.14-0.03,0.26-0.06,0.37-0.1
			l0.16-0.05c2.53-1.07,4.76-1.61,6.71-1.61c1.94,0,3.34,0.56,4.17,1.66c0.82,1.15,0.82,2.76,0,4.85c-0.04,0.24-0.08,0.42-0.12,0.55
			c-0.05,0.13-0.01,0.24,0.12,0.34c0.13,0.1,0.24,0.17,0.33,0.2c0.09,0.04,0.25,0.09,0.46,0.16c1.04,0.33,1.97,0.76,2.81,1.28
			c0.84,0.53,1.56,1.27,2.18,2.22c0.62,0.95,0.93,2.01,0.93,3.18C971.66,386.44,971.32,387.71,970.65,389.01z M967.24,370.34
			c-0.8-0.87-1.77-1.19-2.92-0.95c-0.44,0.09-0.85,0.02-1.23-0.22c-0.38-0.24-0.61-0.57-0.68-1.01c-0.09-0.44-0.02-0.84,0.22-1.21
			c0.24-0.37,0.57-0.6,1.01-0.7c1.09-0.24,2.17-0.19,3.24,0.15c1.07,0.34,1.99,0.93,2.76,1.79c0.76,0.85,1.26,1.84,1.48,2.96
			c0.23,1.12,0.17,2.19-0.18,3.21c-0.15,0.42-0.41,0.73-0.8,0.93s-0.79,0.24-1.21,0.11c-0.42-0.14-0.73-0.41-0.93-0.8
			c-0.2-0.39-0.24-0.8-0.11-1.21C968.26,372.22,968.04,371.21,967.24,370.34z M977.28,376.4c-0.16,0.49-0.47,0.85-0.93,1.09
			c-0.46,0.24-0.93,0.27-1.42,0.11c-0.49-0.16-0.86-0.47-1.09-0.93c-0.24-0.45-0.28-0.93-0.14-1.42c0.51-1.49,0.6-3.05,0.27-4.69
			c-0.33-1.64-1.05-3.07-2.18-4.31c-1.13-1.25-2.47-2.12-4.04-2.6c-1.56-0.48-3.14-0.56-4.72-0.23c-0.51,0.11-0.98,0.02-1.42-0.26
			c-0.44-0.28-0.71-0.68-0.82-1.19c-0.11-0.51-0.02-0.98,0.26-1.4c0.28-0.43,0.68-0.69,1.19-0.8c2.24-0.47,4.46-0.37,6.65,0.31
			c2.2,0.68,4.09,1.9,5.67,3.67c1.58,1.75,2.6,3.77,3.07,6.07C978.11,372.11,977.98,374.3,977.28,376.4z"/>
	</g>
	<g>
		<path class="st0" d="M968.55,379.8c-0.84-0.53-1.77-0.95-2.81-1.28c-0.22-0.07-0.37-0.13-0.46-0.16c-0.09-0.04-0.2-0.1-0.33-0.2
			c-0.13-0.1-0.17-0.21-0.12-0.34c0.04-0.13,0.09-0.31,0.12-0.55c0.82-2.09,0.82-3.71,0-4.85c-0.84-1.11-2.23-1.66-4.17-1.66
			c-1.95,0-4.18,0.54-6.71,1.61l-0.16,0.06c-0.11,0.04-0.23,0.07-0.37,0.1c-0.14,0.03-0.27,0.03-0.4,0.01
			c-0.13-0.02-0.22-0.08-0.27-0.19c-0.05-0.11-0.04-0.29,0.03-0.54c0.82-2.64,0.64-4.54-0.54-5.7c-1.35-1.35-3.59-1.41-6.72-0.19
			c-3.14,1.22-6.24,3.36-9.31,6.44c-2.33,2.33-4.12,4.67-5.39,7.04c-1.26,2.36-1.9,4.59-1.9,6.68c0,1.96,0.59,3.78,1.77,5.44
			c1.18,1.67,2.74,3.04,4.68,4.12c1.94,1.08,4.12,1.93,6.56,2.54c2.44,0.61,4.94,0.91,7.5,0.91c2.56,0,5.02-0.28,7.38-0.85
			c2.35-0.56,4.41-1.32,6.16-2.26c1.76-0.94,3.29-2.01,4.6-3.2c1.31-1.19,2.3-2.44,2.97-3.74c0.67-1.3,1.01-2.57,1.01-3.8
			c0-1.16-0.31-2.22-0.93-3.18C970.11,381.07,969.38,380.33,968.55,379.8z M959.64,392.31c-2.66,2.15-6.02,3.44-10.08,3.86
			c-2.65,0.25-5.15,0.06-7.49-0.57c-2.34-0.64-4.23-1.63-5.69-2.97c-1.46-1.35-2.26-2.89-2.43-4.64c-0.26-2.65,0.95-5.06,3.61-7.21
			c2.66-2.15,6.02-3.44,10.08-3.86c2.66-0.26,5.15-0.06,7.49,0.57c2.34,0.64,4.23,1.63,5.69,2.97c1.45,1.35,2.26,2.89,2.43,4.64
			C963.51,387.75,962.31,390.16,959.64,392.31z"/>
		<path class="st0" d="M950.36,381c-1.93-0.49-3.84-0.32-5.74,0.52c-1.9,0.84-3.28,2.1-4.13,3.79c-0.85,1.73-0.91,3.43-0.18,5.11
			c0.74,1.68,2.08,2.83,4.02,3.45c2.02,0.65,4.06,0.55,6.11-0.33c2.06-0.87,3.49-2.24,4.31-4.09c0.82-1.82,0.8-3.55-0.07-5.2
			C953.81,382.62,952.37,381.53,950.36,381z M947.44,389.84c-0.4,0.62-0.97,1.05-1.7,1.3c-0.74,0.25-1.41,0.22-2.03-0.07
			c-0.62-0.29-1.01-0.75-1.17-1.38c-0.16-0.63-0.05-1.25,0.35-1.87c0.38-0.6,0.93-1.02,1.64-1.25c0.71-0.24,1.37-0.23,1.99,0.03
			c0.64,0.27,1.05,0.73,1.23,1.36C947.92,388.6,947.82,389.22,947.44,389.84z M950,386.54c-0.13,0.24-0.33,0.4-0.6,0.5
			c-0.27,0.1-0.54,0.1-0.79,0.01c-0.55-0.26-0.66-0.66-0.35-1.23c0.13-0.24,0.32-0.4,0.59-0.51c0.26-0.1,0.52-0.1,0.78-0.01
			c0.24,0.09,0.4,0.26,0.48,0.5C950.18,386.06,950.15,386.31,950,386.54z M968,374.58c0.2,0.39,0.51,0.66,0.93,0.8
			c0.42,0.13,0.82,0.09,1.21-0.11c0.39-0.2,0.66-0.51,0.81-0.93c0.35-1.02,0.4-2.09,0.18-3.21c-0.23-1.12-0.72-2.1-1.48-2.96
			c-0.76-0.85-1.68-1.45-2.76-1.79c-1.07-0.33-2.15-0.39-3.24-0.15c-0.44,0.09-0.77,0.32-1.01,0.7c-0.23,0.37-0.31,0.78-0.22,1.21
			c0.07,0.44,0.3,0.77,0.68,1.01c0.38,0.23,0.79,0.31,1.23,0.22c1.15-0.24,2.12,0.08,2.92,0.95c0.8,0.87,1.02,1.88,0.65,3.03
			C967.76,373.79,967.8,374.19,968,374.58z"/>
		<path class="st0" d="M977.64,369.81c-0.46-2.3-1.49-4.32-3.07-6.07c-1.58-1.76-3.47-2.99-5.67-3.67c-2.2-0.68-4.42-0.79-6.65-0.31
			c-0.51,0.11-0.9,0.38-1.19,0.8c-0.28,0.43-0.37,0.9-0.26,1.4c0.11,0.51,0.38,0.9,0.82,1.19c0.44,0.28,0.91,0.37,1.42,0.26
			c1.58-0.33,3.15-0.25,4.72,0.23c1.56,0.48,2.91,1.35,4.04,2.6c1.13,1.24,1.85,2.67,2.18,4.31c0.33,1.64,0.24,3.2-0.27,4.69
			c-0.15,0.49-0.1,0.96,0.14,1.42c0.23,0.46,0.6,0.76,1.09,0.93c0.49,0.16,0.96,0.13,1.42-0.11c0.45-0.24,0.76-0.6,0.93-1.09
			C977.98,374.3,978.11,372.11,977.64,369.81z"/>
	</g>
</g>
<g>
	<path class="st23" d="M999.22,343.44v72h72v-72H999.22z M1011,389.5l8.74-14.43l-6.42-12.01h11.48l6.43,12.01l-8.74,14.43H1011z
		 M1053.31,404.98h-12.08l-11.69-19.8l17.8-31.28h12.1l-17.8,31.28L1053.31,404.98z"/>
	<path class="st0" d="M1024.8,363.06h-11.48l6.42,12.01L1011,389.5h11.48l8.74-14.43 M1047.34,353.9h12.1l-17.8,31.28l11.68,19.8
		h-12.08l-11.69-19.8"/>
</g>
<g>
	<g>
		<path class="st24" d="M1126.09,379.28l-13.4-6.79c-0.36-0.18-0.78,0.08-0.78,0.48v13.18c0,0.4,0.41,0.66,0.77,0.49l13.4-6.39
			C1126.48,380.06,1126.49,379.48,1126.09,379.28z"/>
		<path class="st24" d="M1082.22,343.44v72h72v-72H1082.22z M1143.14,386.71c0,5.62-4.56,10.18-10.18,10.18h-28.65
			c-5.62,0-10.18-4.56-10.18-10.18v-14.32c0-5.62,4.56-10.18,10.18-10.18h28.65c5.62,0,10.18,4.56,10.18,10.18V386.71z"/>
	</g>
	<path class="st0" d="M1104.31,396.89h28.65c5.62,0,10.18-4.56,10.18-10.18v-14.32c0-5.62-4.56-10.18-10.18-10.18h-28.65
		c-5.62,0-10.18,4.56-10.18,10.18v14.32C1094.14,392.33,1098.69,396.89,1104.31,396.89z M1111.91,372.97c0-0.4,0.42-0.66,0.78-0.48
		l13.4,6.79c0.4,0.2,0.39,0.77-0.01,0.96l-13.4,6.39c-0.36,0.17-0.77-0.09-0.77-0.49V372.97z"/>
</g>
<g>
	<path class="st25" d="M322.83-96.8c-1.45,0.85-3.05,1.46-4.76,1.79c-1.36-1.43-3.31-2.33-5.47-2.33c-4.14,0-7.49,3.3-7.49,7.37
		c0,0.58,0.07,1.14,0.19,1.68c-6.22-0.31-11.74-3.24-15.44-7.7c-0.64,1.09-1.01,2.35-1.01,3.71c0,2.56,1.33,4.81,3.33,6.14
		c-1.23-0.04-2.38-0.37-3.39-0.92c0,0.03,0,0.06,0,0.09c0,3.57,2.58,6.55,6.01,7.23c-0.63,0.17-1.29,0.26-1.97,0.26
		c-0.48,0-0.95-0.05-1.41-0.13c0.96,2.93,3.72,5.06,7,5.12c-2.56,1.98-5.79,3.16-9.3,3.16c-0.61,0-1.2-0.04-1.79-0.1
		c3.32,2.09,7.25,3.31,11.48,3.31c13.78,0,21.31-11.23,21.31-20.98c0-0.32,0-0.64-0.02-0.95c1.46-1.04,2.73-2.34,3.74-3.82
		c-1.34,0.59-2.79,0.98-4.3,1.16C321.08-93.63,322.27-95.08,322.83-96.8z"/>
</g>
</svg>
